<?xml version="1.0" encoding="utf-8"?>
<!-- Generator: Adobe Illustrator 21.0.0, SVG Export Plug-In . SVG Version: 6.00 Build 0)  -->
<svg version="1.1" id="Layer_1" xmlns="http://www.w3.org/2000/svg" xmlns:xlink="http://www.w3.org/1999/xlink" x="0px" y="0px"
	 width="282.6px" height="74.9px" viewBox="0 0 282.6 74.9" style="enable-background:new 0 0 282.6 74.9;" xml:space="preserve">
<style type="text/css">
	.st0{fill:#ED1848;}
</style>
<polygon class="st0" points="143.1,59.3 143.1,15.5 152.3,15.5 152.3,50.8 169.8,50.8 169.8,0 0,0 0,74.9 169.8,74.9 169.8,59.3 "/>
<path class="st0" d="M185.4,58.4v-42h8.2v42H185.4z"/>
<path class="st0" d="M226.9,58.4h-17.6v-42h16.9c8.2,0,13,4.6,13,11.8c0,4.7-3.1,7.7-5.2,8.7c2.5,1.2,5.8,3.8,5.8,9.4
	C239.8,54.2,234.4,58.4,226.9,58.4z M225.5,23.7h-8v9.7h8c3.5,0,5.4-1.9,5.4-4.8C231,25.7,229,23.7,225.5,23.7z M226.1,40.8h-8.6
	v10.3h8.6c3.7,0,5.5-2.4,5.5-5.2C231.6,43.1,229.8,40.8,226.1,40.8z"/>
<path class="st0" d="M278.4,54.4c-2.8,2.8-6.7,4-11.1,4h-15.2v-42h15.2c4.4,0,8.3,1.2,11.1,4c4.7,4.7,4.2,10.5,4.2,16.8
	C282.6,43.5,283.1,49.7,278.4,54.4z M272.7,26.3c-1.4-1.7-3.3-2.6-6.1-2.6h-6.2v27.4h6.2c2.8,0,4.7-0.9,6.1-2.6
	c1.5-1.9,1.8-4.9,1.8-11.3C274.4,30.9,274.2,28.2,272.7,26.3z"/>
</svg>
